<?xml version="1.0" encoding="UTF-8"?>
<svg version="1.1" xmlns="http://www.w3.org/2000/svg" width="500" height="500">
<path d="M0 0 C165 0 330 0 500 0 C500 165 500 330 500 500 C335 500 170 500 0 500 C0 335 0 170 0 0 Z " fill="#000000" transform="translate(0,0)"/>
<path d="M0 0 C13.2 0 26.4 0 40 0 C40 0.66 40 1.32 40 2 C39.32453125 2.09796875 38.6490625 2.1959375 37.953125 2.296875 C34.09289868 2.94396496 30.79282279 3.54695841 27.375 5.5 C24.89950867 10.00089333 25.3664944 15.4316327 26.57765007 20.34191704 C27.40121348 22.7181033 28.31824952 25.02936438 29.28881836 27.34936523 C29.63834061 28.22382797 29.98786285 29.09829071 30.34797668 29.99925232 C31.49573493 32.85920918 32.66750333 35.70863614 33.83984375 38.55859375 C34.64611174 40.55431739 35.45082123 42.55067131 36.25404358 44.54762268 C38.36418091 49.78211618 40.49474667 55.00804853 42.62994385 60.23236084 C44.80373308 65.56084862 46.95893259 70.896839 49.11523438 76.23242188 C51.53688484 82.2222631 53.96047694 88.21125733 56.39793396 94.19468689 C56.76733093 95.10185455 57.13672791 96.00902222 57.51731873 96.94367981 C58.20770793 98.63822652 58.89887861 100.33245513 59.5909729 102.02630615 C60.80210399 104.99934848 61.98450671 107.95352013 63 111 C65.20721082 105.91451877 67.41253939 100.82822683 69.61621094 95.74121094 C70.3644059 94.0147559 71.11309347 92.28851426 71.86230469 90.5625 C78.86994769 75.68736807 78.86994769 75.68736807 83.8125 60.125 C84.61778579 56.61477991 86.09363291 54.04840985 88 51 C95.15007846 39.30947088 105.45240414 21.08975587 103 7 C99.73283936 3.9607808 96.1823367 2.47611884 92 1 C92 0.67 92 0.34 92 0 C102.56 0 113.12 0 124 0 C123 2 123 2 120.3125 3.1875 C113.45662714 6.93882666 110.01435516 13.22555781 106.9375 20.1875 C106.43379883 21.29146118 106.43379883 21.29146118 105.91992188 22.41772461 C103.14082353 28.55267755 100.50549957 34.74829676 98 41 C98.81791016 40.60167969 98.81791016 40.60167969 99.65234375 40.1953125 C100.40644531 39.84210938 101.16054688 39.48890625 101.9375 39.125 C102.66839844 38.77695313 103.39929688 38.42890625 104.15234375 38.0703125 C111.1008743 35.4586563 117.92479793 34.6343456 125.3125 34.6875 C126.14209229 34.69313965 126.97168457 34.6987793 127.82641602 34.70458984 C142.37035145 34.99040315 155.40302954 39.88471002 166 50 C164.48865019 55.66529928 161.6348878 60.04411958 158.4375 64.875 C157.93025391 65.65875 157.42300781 66.4425 156.90039062 67.25 C154.13989695 71.46976929 154.13989695 71.46976929 153 73 C152.67 73 152.34 73 152 73 C151.99742187 72.34515625 151.99484375 71.6903125 151.9921875 71.015625 C151.59978661 61.75496388 148.65000494 52.94315725 141.6875 46.5 C140.48628444 45.62685837 139.25619378 44.79200526 138 44 C137.12021484 43.38511719 137.12021484 43.38511719 136.22265625 42.7578125 C130.89628493 39.69910422 125.43418373 39.58645738 119.4375 39.5 C118.6340918 39.48146973 117.83068359 39.46293945 117.00292969 39.44384766 C110.58596137 39.51093773 104.97906086 41.003335 100.34741211 45.66235352 C95.39803767 51.72374541 96.2591588 59.63274582 97 67 C98.1791137 72.63461709 101.80685911 77.19368619 106 81 C114.19530028 86.19816761 123.64514584 88.43565952 132.90209961 90.97680664 C146.12124345 94.63274416 157.79159171 99.10128145 165.875 110.6875 C169.35375061 117.83826514 169.04484168 127.28562398 167.3515625 134.92578125 C163.17254393 146.40915278 155.42980497 151.4147396 144.83984375 156.43359375 C132.28025483 161.84686682 112.40981552 161.10192166 99.72265625 156.26953125 C92.48745728 152.89587319 85.90352953 149.42486498 80 144 C81.26549173 140.6487836 82.70187898 137.63101496 84.56640625 134.57421875 C85.05173828 133.77822266 85.53707031 132.98222656 86.03710938 132.16210938 C86.54048828 131.34548828 87.04386719 130.52886719 87.5625 129.6875 C88.06974609 128.85154297 88.57699219 128.01558594 89.09960938 127.15429688 C91.90654901 122.57573356 91.90654901 122.57573356 93 121 C93.33 121 93.66 121 94 121 C94.09796875 121.845625 94.1959375 122.69125 94.296875 123.5625 C95.73464961 134.46975565 97.87786705 141.05531655 106.4296875 148.23828125 C115.63479808 154.54755917 127.09727205 155.97370275 138 155 C144.78790247 153.35700839 149.24933567 150.91013773 153 145 C156.39763756 138.59144785 157.16331876 131.83030181 155.4609375 124.76171875 C153.36045548 118.63338934 150.52109431 114.62238436 144.75 111.5 C136.63530382 107.69325282 127.89370398 105.29344517 119.24609375 103.0078125 C107.03494744 99.76401732 94.21491292 94.54903758 87.33203125 83.265625 C86.12509544 80.87203801 85.01192197 78.48149708 84 76 C80.97792586 79.51218605 79.50370057 83.45703004 77.8828125 87.73046875 C77.27034365 89.27232599 76.65568645 90.8133154 76.0390625 92.35351562 C75.0803448 94.75786844 74.13394512 97.16366008 73.22460938 99.5871582 C68.82754222 111.23962566 64.5142769 118.38579458 53 124 C52.34 124 51.68 124 51 124 C50.79585983 123.27582886 50.59171967 122.55165771 50.38139343 121.80554199 C47.43811727 111.78484608 43.62696994 102.20173552 39.70703125 92.53125 C38.99404306 90.76183825 38.28146086 88.99226284 37.56925964 87.22253418 C36.0806069 83.52658586 34.58846669 79.83207306 33.09350586 76.13867188 C31.2034964 71.46904645 29.3201359 66.79677675 27.43901253 62.12356567 C18.22893335 39.2121427 18.22893335 39.2121427 8.76171875 16.40625 C8.43879349 15.63059692 8.11586823 14.85494385 7.78315735 14.05578613 C5.58221271 8.9210664 3.03800048 4.86080077 0 0 Z " fill="#F6BC49" transform="translate(159,158)"/>
<path d="M0 0 C0 0.33 0 0.66 0 1 C2.97 1.33 5.94 1.66 9 2 C9 2.33 9 2.66 9 3 C7.46279297 3.09087891 7.46279297 3.09087891 5.89453125 3.18359375 C4.53384305 3.26805026 3.17316657 3.35269567 1.8125 3.4375 C1.13896484 3.47681641 0.46542969 3.51613281 -0.22851562 3.55664062 C-3.89699102 3.78927565 -7.41694206 4.17207011 -11 5 C-11.33 4.01 -11.66 3.02 -12 2 C-7.8803623 0.70756464 -4.33168317 -0.26252625 0 0 Z " fill="#B68B36" transform="translate(275,194)"/>
<path d="M0 0 C1.65 1.65 3.3 3.3 5 5 C4.01 5.99 3.02 6.98 2 8 C0.68 7.34 -0.64 6.68 -2 6 C-2 3 -2 3 0 0 Z " fill="#E8B145" transform="translate(231,286)"/>
<path d="M0 0 C0.66 0.33 1.32 0.66 2 1 C2 1.66 2 2.32 2 3 C2.66 3 3.32 3 4 3 C2.84826645 5.46800047 1.95216435 7.04783565 0 9 C-0.99 7.35 -1.98 5.7 -3 4 C-2.01 2.68 -1.02 1.36 0 0 Z " fill="#E9B245" transform="translate(285,181)"/>
<path d="M0 0 C0 0.66 0 1.32 0 2 C-2.31 2.66 -4.62 3.32 -7 4 C-7.33 3.01 -7.66 2.02 -8 1 C-2.25 -1.125 -2.25 -1.125 0 0 Z " fill="#CD9D3D" transform="translate(305,312)"/>
</svg>
